<mxfile host="app.diagrams.net" modified="2023-05-16T07:47:58.233Z" agent="Mozilla/5.0 (Windows NT 10.0; Win64; x64) AppleWebKit/537.36 (KHTML, like Gecko) Chrome/113.0.0.0 Safari/537.36" etag="RDFa3I9C61Ig3FOmniA0" version="21.2.9">
  <diagram name="Página-1" id="_DNSG17SYSdKRm8znBRe">
    <mxGraphModel dx="1434" dy="760" grid="1" gridSize="10" guides="1" tooltips="1" connect="1" arrows="1" fold="1" page="1" pageScale="1" pageWidth="827" pageHeight="1169" math="0" shadow="0">
      <root>
        <mxCell id="0" />
        <mxCell id="1" parent="0" />
        <mxCell id="nPvhPU_qYs2ZT6tVMFeS-1" value="USERS" style="rounded=0;whiteSpace=wrap;html=1;" vertex="1" parent="1">
          <mxGeometry x="430" y="190" width="110" height="30" as="geometry" />
        </mxCell>
        <mxCell id="nPvhPU_qYs2ZT6tVMFeS-3" value="NIVEL USERS" style="rounded=0;whiteSpace=wrap;html=1;" vertex="1" parent="1">
          <mxGeometry x="320" y="80" width="110" height="30" as="geometry" />
        </mxCell>
        <mxCell id="nPvhPU_qYs2ZT6tVMFeS-4" value="NIVEL ADMIN" style="rounded=0;whiteSpace=wrap;html=1;" vertex="1" parent="1">
          <mxGeometry x="550" y="80" width="110" height="30" as="geometry" />
        </mxCell>
        <mxCell id="nPvhPU_qYs2ZT6tVMFeS-5" value="LOG ADMIN" style="rounded=0;whiteSpace=wrap;html=1;" vertex="1" parent="1">
          <mxGeometry x="717" y="140" width="110" height="30" as="geometry" />
        </mxCell>
        <mxCell id="nPvhPU_qYs2ZT6tVMFeS-6" value="FAVORITOS" style="rounded=0;whiteSpace=wrap;html=1;" vertex="1" parent="1">
          <mxGeometry x="250" y="310" width="110" height="30" as="geometry" />
        </mxCell>
        <mxCell id="nPvhPU_qYs2ZT6tVMFeS-7" value="SOPORTE TÉCNICO" style="rounded=0;whiteSpace=wrap;html=1;" vertex="1" parent="1">
          <mxGeometry x="450" y="340" width="110" height="30" as="geometry" />
        </mxCell>
        <mxCell id="nPvhPU_qYs2ZT6tVMFeS-9" value="EQUIPOS ALEATORIO" style="rounded=0;whiteSpace=wrap;html=1;" vertex="1" parent="1">
          <mxGeometry x="180" y="190" width="110" height="30" as="geometry" />
        </mxCell>
        <mxCell id="nPvhPU_qYs2ZT6tVMFeS-10" value="EQUIPOS POKEMON" style="rounded=0;whiteSpace=wrap;html=1;" vertex="1" parent="1">
          <mxGeometry x="700" y="220" width="110" height="30" as="geometry" />
        </mxCell>
        <mxCell id="nPvhPU_qYs2ZT6tVMFeS-11" value="ENFRENTAMIENTOS" style="rounded=0;whiteSpace=wrap;html=1;" vertex="1" parent="1">
          <mxGeometry x="960" y="220" width="130" height="30" as="geometry" />
        </mxCell>
        <mxCell id="nPvhPU_qYs2ZT6tVMFeS-13" value="EQUIPOS BANEADOS" style="rounded=0;whiteSpace=wrap;html=1;" vertex="1" parent="1">
          <mxGeometry x="930" y="310" width="130" height="30" as="geometry" />
        </mxCell>
        <mxCell id="nPvhPU_qYs2ZT6tVMFeS-14" value="POKEMONS BANEADOS" style="rounded=0;whiteSpace=wrap;html=1;" vertex="1" parent="1">
          <mxGeometry x="750" y="390" width="110" height="30" as="geometry" />
        </mxCell>
        <mxCell id="nPvhPU_qYs2ZT6tVMFeS-16" value="NU - U&lt;br&gt;NA - U" style="rhombus;whiteSpace=wrap;html=1;" vertex="1" parent="1">
          <mxGeometry x="440" y="120" width="90" height="40" as="geometry" />
        </mxCell>
        <mxCell id="nPvhPU_qYs2ZT6tVMFeS-17" value="EA - U" style="rhombus;whiteSpace=wrap;html=1;" vertex="1" parent="1">
          <mxGeometry x="330" y="190" width="70" height="30" as="geometry" />
        </mxCell>
        <mxCell id="nPvhPU_qYs2ZT6tVMFeS-18" value="U - LA" style="rhombus;whiteSpace=wrap;html=1;" vertex="1" parent="1">
          <mxGeometry x="580" y="160" width="70" height="30" as="geometry" />
        </mxCell>
        <mxCell id="nPvhPU_qYs2ZT6tVMFeS-19" value="F - U" style="rhombus;whiteSpace=wrap;html=1;" vertex="1" parent="1">
          <mxGeometry x="350" y="260" width="70" height="30" as="geometry" />
        </mxCell>
        <mxCell id="nPvhPU_qYs2ZT6tVMFeS-20" value="ST - U" style="rhombus;whiteSpace=wrap;html=1;" vertex="1" parent="1">
          <mxGeometry x="470" y="280" width="70" height="30" as="geometry" />
        </mxCell>
        <mxCell id="nPvhPU_qYs2ZT6tVMFeS-21" value="U - EP" style="rhombus;whiteSpace=wrap;html=1;" vertex="1" parent="1">
          <mxGeometry x="579" y="230" width="70" height="30" as="geometry" />
        </mxCell>
        <mxCell id="nPvhPU_qYs2ZT6tVMFeS-22" value="EP - E" style="rhombus;whiteSpace=wrap;html=1;" vertex="1" parent="1">
          <mxGeometry x="850" y="220" width="70" height="30" as="geometry" />
        </mxCell>
        <mxCell id="nPvhPU_qYs2ZT6tVMFeS-23" value="EP - EB" style="rhombus;whiteSpace=wrap;html=1;" vertex="1" parent="1">
          <mxGeometry x="790" y="310" width="70" height="30" as="geometry" />
        </mxCell>
        <mxCell id="nPvhPU_qYs2ZT6tVMFeS-24" value="PB - EB" style="rhombus;whiteSpace=wrap;html=1;" vertex="1" parent="1">
          <mxGeometry x="960" y="390" width="70" height="30" as="geometry" />
        </mxCell>
        <mxCell id="nPvhPU_qYs2ZT6tVMFeS-25" value="1" style="endArrow=classic;html=1;rounded=0;entryX=1;entryY=0.5;entryDx=0;entryDy=0;exitX=0;exitY=0.5;exitDx=0;exitDy=0;" edge="1" parent="1" source="nPvhPU_qYs2ZT6tVMFeS-24" target="nPvhPU_qYs2ZT6tVMFeS-14">
          <mxGeometry relative="1" as="geometry">
            <mxPoint x="530" y="380" as="sourcePoint" />
            <mxPoint x="690" y="380" as="targetPoint" />
          </mxGeometry>
        </mxCell>
        <mxCell id="nPvhPU_qYs2ZT6tVMFeS-29" value="M" style="endArrow=classic;html=1;rounded=0;entryX=0.5;entryY=1;entryDx=0;entryDy=0;exitX=0.5;exitY=0;exitDx=0;exitDy=0;" edge="1" parent="1" source="nPvhPU_qYs2ZT6tVMFeS-24" target="nPvhPU_qYs2ZT6tVMFeS-13">
          <mxGeometry relative="1" as="geometry">
            <mxPoint x="885" y="410" as="sourcePoint" />
            <mxPoint x="800" y="425" as="targetPoint" />
          </mxGeometry>
        </mxCell>
        <mxCell id="nPvhPU_qYs2ZT6tVMFeS-33" value="M" style="endArrow=classic;html=1;rounded=0;exitX=1;exitY=0.5;exitDx=0;exitDy=0;entryX=0;entryY=0.5;entryDx=0;entryDy=0;" edge="1" parent="1" source="nPvhPU_qYs2ZT6tVMFeS-22" target="nPvhPU_qYs2ZT6tVMFeS-11">
          <mxGeometry relative="1" as="geometry">
            <mxPoint x="920" y="395" as="sourcePoint" />
            <mxPoint x="930" y="280" as="targetPoint" />
          </mxGeometry>
        </mxCell>
        <mxCell id="nPvhPU_qYs2ZT6tVMFeS-42" value="1" style="endArrow=classic;html=1;rounded=0;entryX=1;entryY=0.5;entryDx=0;entryDy=0;exitX=0;exitY=0.5;exitDx=0;exitDy=0;" edge="1" parent="1" source="nPvhPU_qYs2ZT6tVMFeS-22" target="nPvhPU_qYs2ZT6tVMFeS-10">
          <mxGeometry relative="1" as="geometry">
            <mxPoint x="920" y="395" as="sourcePoint" />
            <mxPoint x="945" y="350" as="targetPoint" />
          </mxGeometry>
        </mxCell>
        <mxCell id="nPvhPU_qYs2ZT6tVMFeS-44" value="M" style="endArrow=classic;html=1;rounded=0;exitX=1;exitY=0.5;exitDx=0;exitDy=0;entryX=0;entryY=0.5;entryDx=0;entryDy=0;" edge="1" parent="1" source="nPvhPU_qYs2ZT6tVMFeS-23" target="nPvhPU_qYs2ZT6tVMFeS-13">
          <mxGeometry relative="1" as="geometry">
            <mxPoint x="1005" y="400" as="sourcePoint" />
            <mxPoint x="890" y="370" as="targetPoint" />
          </mxGeometry>
        </mxCell>
        <mxCell id="nPvhPU_qYs2ZT6tVMFeS-45" value="1" style="endArrow=classic;html=1;rounded=0;entryX=0.5;entryY=1;entryDx=0;entryDy=0;exitX=0;exitY=0;exitDx=0;exitDy=0;" edge="1" parent="1" source="nPvhPU_qYs2ZT6tVMFeS-23" target="nPvhPU_qYs2ZT6tVMFeS-10">
          <mxGeometry relative="1" as="geometry">
            <mxPoint x="1015" y="410" as="sourcePoint" />
            <mxPoint x="1015" y="360" as="targetPoint" />
          </mxGeometry>
        </mxCell>
        <mxCell id="nPvhPU_qYs2ZT6tVMFeS-46" value="1" style="endArrow=classic;html=1;rounded=0;entryX=0;entryY=0;entryDx=0;entryDy=0;exitX=1;exitY=0.5;exitDx=0;exitDy=0;" edge="1" parent="1" source="nPvhPU_qYs2ZT6tVMFeS-1" target="nPvhPU_qYs2ZT6tVMFeS-21">
          <mxGeometry relative="1" as="geometry">
            <mxPoint x="600" y="220" as="sourcePoint" />
            <mxPoint x="765" y="260" as="targetPoint" />
          </mxGeometry>
        </mxCell>
        <mxCell id="nPvhPU_qYs2ZT6tVMFeS-47" value="M" style="endArrow=classic;html=1;rounded=0;exitX=1;exitY=0.5;exitDx=0;exitDy=0;entryX=0;entryY=0.5;entryDx=0;entryDy=0;" edge="1" parent="1" source="nPvhPU_qYs2ZT6tVMFeS-21" target="nPvhPU_qYs2ZT6tVMFeS-10">
          <mxGeometry relative="1" as="geometry">
            <mxPoint x="870" y="335" as="sourcePoint" />
            <mxPoint x="940" y="335" as="targetPoint" />
          </mxGeometry>
        </mxCell>
        <mxCell id="nPvhPU_qYs2ZT6tVMFeS-48" value="1" style="endArrow=classic;html=1;rounded=0;entryX=0;entryY=1;entryDx=0;entryDy=0;exitX=1;exitY=0.5;exitDx=0;exitDy=0;" edge="1" parent="1" source="nPvhPU_qYs2ZT6tVMFeS-1" target="nPvhPU_qYs2ZT6tVMFeS-18">
          <mxGeometry relative="1" as="geometry">
            <mxPoint x="550" y="215" as="sourcePoint" />
            <mxPoint x="607" y="248" as="targetPoint" />
          </mxGeometry>
        </mxCell>
        <mxCell id="nPvhPU_qYs2ZT6tVMFeS-49" value="M" style="endArrow=classic;html=1;rounded=0;exitX=1;exitY=0.5;exitDx=0;exitDy=0;entryX=0;entryY=0.75;entryDx=0;entryDy=0;" edge="1" parent="1" source="nPvhPU_qYs2ZT6tVMFeS-18" target="nPvhPU_qYs2ZT6tVMFeS-5">
          <mxGeometry relative="1" as="geometry">
            <mxPoint x="659" y="255" as="sourcePoint" />
            <mxPoint x="710" y="245" as="targetPoint" />
          </mxGeometry>
        </mxCell>
        <mxCell id="nPvhPU_qYs2ZT6tVMFeS-50" value="1" style="endArrow=classic;html=1;rounded=0;exitX=1;exitY=1;exitDx=0;exitDy=0;" edge="1" parent="1" source="nPvhPU_qYs2ZT6tVMFeS-3" target="nPvhPU_qYs2ZT6tVMFeS-16">
          <mxGeometry relative="1" as="geometry">
            <mxPoint x="550" y="215" as="sourcePoint" />
            <mxPoint x="607" y="248" as="targetPoint" />
          </mxGeometry>
        </mxCell>
        <mxCell id="nPvhPU_qYs2ZT6tVMFeS-51" value="1" style="endArrow=classic;html=1;rounded=0;entryX=1;entryY=0;entryDx=0;entryDy=0;exitX=0;exitY=1;exitDx=0;exitDy=0;" edge="1" parent="1" source="nPvhPU_qYs2ZT6tVMFeS-4" target="nPvhPU_qYs2ZT6tVMFeS-16">
          <mxGeometry relative="1" as="geometry">
            <mxPoint x="560" y="225" as="sourcePoint" />
            <mxPoint x="617" y="258" as="targetPoint" />
          </mxGeometry>
        </mxCell>
        <mxCell id="nPvhPU_qYs2ZT6tVMFeS-54" value="NA - LA" style="rhombus;whiteSpace=wrap;html=1;" vertex="1" parent="1">
          <mxGeometry x="737" y="80" width="70" height="30" as="geometry" />
        </mxCell>
        <mxCell id="nPvhPU_qYs2ZT6tVMFeS-55" value="1" style="endArrow=classic;html=1;rounded=0;entryX=0;entryY=0.5;entryDx=0;entryDy=0;exitX=1;exitY=0.5;exitDx=0;exitDy=0;" edge="1" parent="1" source="nPvhPU_qYs2ZT6tVMFeS-4" target="nPvhPU_qYs2ZT6tVMFeS-54">
          <mxGeometry relative="1" as="geometry">
            <mxPoint x="540" y="205" as="sourcePoint" />
            <mxPoint x="597" y="238" as="targetPoint" />
          </mxGeometry>
        </mxCell>
        <mxCell id="nPvhPU_qYs2ZT6tVMFeS-56" value="M" style="endArrow=classic;html=1;rounded=0;exitX=0.5;exitY=1;exitDx=0;exitDy=0;entryX=0.5;entryY=0;entryDx=0;entryDy=0;" edge="1" parent="1" source="nPvhPU_qYs2ZT6tVMFeS-54" target="nPvhPU_qYs2ZT6tVMFeS-5">
          <mxGeometry relative="1" as="geometry">
            <mxPoint x="660" y="185" as="sourcePoint" />
            <mxPoint x="727" y="173" as="targetPoint" />
          </mxGeometry>
        </mxCell>
        <mxCell id="nPvhPU_qYs2ZT6tVMFeS-57" value="M" style="endArrow=classic;html=1;rounded=0;exitX=0.5;exitY=1;exitDx=0;exitDy=0;entryX=0.5;entryY=0;entryDx=0;entryDy=0;" edge="1" parent="1" source="nPvhPU_qYs2ZT6tVMFeS-20" target="nPvhPU_qYs2ZT6tVMFeS-7">
          <mxGeometry relative="1" as="geometry">
            <mxPoint x="670" y="195" as="sourcePoint" />
            <mxPoint x="737" y="183" as="targetPoint" />
          </mxGeometry>
        </mxCell>
        <mxCell id="nPvhPU_qYs2ZT6tVMFeS-58" value="M" style="endArrow=classic;html=1;rounded=0;exitX=0;exitY=1;exitDx=0;exitDy=0;entryX=0.75;entryY=0;entryDx=0;entryDy=0;" edge="1" parent="1" source="nPvhPU_qYs2ZT6tVMFeS-19" target="nPvhPU_qYs2ZT6tVMFeS-6">
          <mxGeometry relative="1" as="geometry">
            <mxPoint x="680" y="205" as="sourcePoint" />
            <mxPoint x="747" y="193" as="targetPoint" />
          </mxGeometry>
        </mxCell>
        <mxCell id="nPvhPU_qYs2ZT6tVMFeS-59" value="M" style="endArrow=classic;html=1;rounded=0;exitX=0;exitY=0.5;exitDx=0;exitDy=0;entryX=1;entryY=0.5;entryDx=0;entryDy=0;" edge="1" parent="1" source="nPvhPU_qYs2ZT6tVMFeS-17" target="nPvhPU_qYs2ZT6tVMFeS-9">
          <mxGeometry relative="1" as="geometry">
            <mxPoint x="690" y="215" as="sourcePoint" />
            <mxPoint x="757" y="203" as="targetPoint" />
          </mxGeometry>
        </mxCell>
        <mxCell id="nPvhPU_qYs2ZT6tVMFeS-60" value="1" style="endArrow=classic;html=1;rounded=0;entryX=0.5;entryY=0;entryDx=0;entryDy=0;exitX=0.75;exitY=1;exitDx=0;exitDy=0;" edge="1" parent="1" source="nPvhPU_qYs2ZT6tVMFeS-1" target="nPvhPU_qYs2ZT6tVMFeS-20">
          <mxGeometry relative="1" as="geometry">
            <mxPoint x="550" y="215" as="sourcePoint" />
            <mxPoint x="607" y="248" as="targetPoint" />
          </mxGeometry>
        </mxCell>
        <mxCell id="nPvhPU_qYs2ZT6tVMFeS-61" value="1" style="endArrow=classic;html=1;rounded=0;entryX=1;entryY=0;entryDx=0;entryDy=0;exitX=0.25;exitY=1;exitDx=0;exitDy=0;" edge="1" parent="1" source="nPvhPU_qYs2ZT6tVMFeS-1" target="nPvhPU_qYs2ZT6tVMFeS-19">
          <mxGeometry relative="1" as="geometry">
            <mxPoint x="560" y="225" as="sourcePoint" />
            <mxPoint x="617" y="258" as="targetPoint" />
          </mxGeometry>
        </mxCell>
        <mxCell id="nPvhPU_qYs2ZT6tVMFeS-62" value="1" style="endArrow=classic;html=1;rounded=0;entryX=1;entryY=0.5;entryDx=0;entryDy=0;exitX=0;exitY=0.5;exitDx=0;exitDy=0;" edge="1" parent="1" source="nPvhPU_qYs2ZT6tVMFeS-1" target="nPvhPU_qYs2ZT6tVMFeS-17">
          <mxGeometry relative="1" as="geometry">
            <mxPoint x="570" y="235" as="sourcePoint" />
            <mxPoint x="627" y="268" as="targetPoint" />
          </mxGeometry>
        </mxCell>
      </root>
    </mxGraphModel>
  </diagram>
</mxfile>
